<mxfile host="app.diagrams.net" modified="2021-08-16T07:38:36.445Z" agent="5.0 (Macintosh; Intel Mac OS X 10_15_7) AppleWebKit/537.36 (KHTML, like Gecko) Chrome/92.0.4515.131 Safari/537.36" etag="yJjMml7j7DFOHGK0_EXC" version="14.9.6" type="github">
  <diagram name="Page-1" id="13e1069c-82ec-6db2-03f1-153e76fe0fe0">
    <mxGraphModel dx="890" dy="588" grid="1" gridSize="10" guides="1" tooltips="1" connect="1" arrows="1" fold="1" page="1" pageScale="1" pageWidth="1100" pageHeight="850" background="none" math="0" shadow="0">
      <root>
        <mxCell id="0" />
        <mxCell id="1" parent="0" />
        <mxCell id="7baba1c4bc27f4b0-2" value="Pipeline" style="shape=umlLifeline;perimeter=lifelinePerimeter;whiteSpace=wrap;html=1;container=1;collapsible=0;recursiveResize=0;outlineConnect=0;rounded=1;shadow=0;comic=0;labelBackgroundColor=none;strokeWidth=1;fontFamily=Verdana;fontSize=12;align=center;" parent="1" vertex="1">
          <mxGeometry x="430" y="80" width="100" height="580" as="geometry" />
        </mxCell>
        <mxCell id="7baba1c4bc27f4b0-10" value="" style="html=1;points=[];perimeter=orthogonalPerimeter;rounded=0;shadow=0;comic=0;labelBackgroundColor=none;strokeWidth=1;fontFamily=Verdana;fontSize=12;align=center;" parent="7baba1c4bc27f4b0-2" vertex="1">
          <mxGeometry x="45" y="100" width="10" height="70" as="geometry" />
        </mxCell>
        <mxCell id="7baba1c4bc27f4b0-11" value="1.创建" style="html=1;verticalAlign=bottom;endArrow=block;entryX=0;entryY=0;labelBackgroundColor=none;fontFamily=Verdana;fontSize=12;edgeStyle=elbowEdgeStyle;elbow=vertical;" parent="1" source="7baba1c4bc27f4b0-9" target="7baba1c4bc27f4b0-10" edge="1">
          <mxGeometry relative="1" as="geometry">
            <mxPoint x="220" y="190" as="sourcePoint" />
          </mxGeometry>
        </mxCell>
        <mxCell id="7baba1c4bc27f4b0-40" value="快数据平台" style="shape=note;whiteSpace=wrap;html=1;size=14;verticalAlign=top;align=left;spacingTop=-6;rounded=0;shadow=0;comic=0;labelBackgroundColor=none;strokeWidth=1;fontFamily=Verdana;fontSize=12" parent="1" vertex="1">
          <mxGeometry x="100" y="30" width="100" height="35" as="geometry" />
        </mxCell>
        <mxCell id="7baba1c4bc27f4b0-41" value="流水线组件" style="shape=note;whiteSpace=wrap;html=1;size=14;verticalAlign=top;align=left;spacingTop=-6;rounded=0;shadow=0;comic=0;labelBackgroundColor=none;strokeWidth=1;fontFamily=Verdana;fontSize=12" parent="1" vertex="1">
          <mxGeometry x="430" y="30" width="100" height="35" as="geometry" />
        </mxCell>
        <mxCell id="7baba1c4bc27f4b0-8" value="FDP" style="shape=umlLifeline;perimeter=lifelinePerimeter;whiteSpace=wrap;html=1;container=1;collapsible=0;recursiveResize=0;outlineConnect=0;rounded=1;shadow=0;comic=0;labelBackgroundColor=none;strokeWidth=1;fontFamily=Verdana;fontSize=12;align=center;" parent="1" vertex="1">
          <mxGeometry x="100" y="80" width="100" height="580" as="geometry" />
        </mxCell>
        <mxCell id="7baba1c4bc27f4b0-9" value="" style="html=1;points=[];perimeter=orthogonalPerimeter;rounded=0;shadow=0;comic=0;labelBackgroundColor=none;strokeWidth=1;fontFamily=Verdana;fontSize=12;align=center;" parent="7baba1c4bc27f4b0-8" vertex="1">
          <mxGeometry x="45" y="100" width="10" height="390" as="geometry" />
        </mxCell>
        <mxCell id="rhxwoxuRmd88uouzCbcx-6" value="创建成功" style="html=1;verticalAlign=bottom;endArrow=block;labelBackgroundColor=none;fontFamily=Verdana;fontSize=12;edgeStyle=elbowEdgeStyle;elbow=vertical;" edge="1" parent="1">
          <mxGeometry relative="1" as="geometry">
            <mxPoint x="476.5000000000002" y="250" as="sourcePoint" />
            <mxPoint x="157" y="250" as="targetPoint" />
            <Array as="points">
              <mxPoint x="227" y="250" />
            </Array>
          </mxGeometry>
        </mxCell>
        <mxCell id="rhxwoxuRmd88uouzCbcx-10" value="" style="html=1;points=[];perimeter=orthogonalPerimeter;gradientColor=none;" vertex="1" parent="1">
          <mxGeometry x="475" y="290" width="10" height="160" as="geometry" />
        </mxCell>
        <mxCell id="rhxwoxuRmd88uouzCbcx-11" value="2.执行" style="html=1;verticalAlign=bottom;endArrow=block;entryX=0;entryY=0;" edge="1" target="rhxwoxuRmd88uouzCbcx-10" parent="1">
          <mxGeometry relative="1" as="geometry">
            <mxPoint x="160" y="290" as="sourcePoint" />
          </mxGeometry>
        </mxCell>
        <mxCell id="rhxwoxuRmd88uouzCbcx-12" value="eventbox回调" style="html=1;verticalAlign=bottom;endArrow=open;dashed=1;endSize=8;exitX=0;exitY=0.95;" edge="1" parent="1">
          <mxGeometry relative="1" as="geometry">
            <mxPoint x="160" y="333" as="targetPoint" />
            <mxPoint x="475" y="333.0000000000001" as="sourcePoint" />
          </mxGeometry>
        </mxCell>
        <mxCell id="rhxwoxuRmd88uouzCbcx-13" value="3.依赖检测" style="html=1;verticalAlign=bottom;endArrow=block;labelBackgroundColor=none;fontFamily=Verdana;fontSize=12;edgeStyle=elbowEdgeStyle;elbow=horizontal;" edge="1" parent="1">
          <mxGeometry relative="1" as="geometry">
            <mxPoint x="160" y="369.17" as="targetPoint" />
            <mxPoint x="475" y="369.17000000000013" as="sourcePoint" />
          </mxGeometry>
        </mxCell>
        <mxCell id="rhxwoxuRmd88uouzCbcx-14" value="返回依赖检测结果" style="html=1;verticalAlign=bottom;endArrow=block;entryX=0;entryY=0;" edge="1" parent="1">
          <mxGeometry relative="1" as="geometry">
            <mxPoint x="160" y="408" as="sourcePoint" />
            <mxPoint x="475" y="408.0000000000001" as="targetPoint" />
          </mxGeometry>
        </mxCell>
        <mxCell id="rhxwoxuRmd88uouzCbcx-15" value="eventbox回调" style="html=1;verticalAlign=bottom;endArrow=open;dashed=1;endSize=8;exitX=0;exitY=0.95;" edge="1" parent="1">
          <mxGeometry relative="1" as="geometry">
            <mxPoint x="160" y="450" as="targetPoint" />
            <mxPoint x="475" y="450.0000000000001" as="sourcePoint" />
          </mxGeometry>
        </mxCell>
        <mxCell id="rhxwoxuRmd88uouzCbcx-18" value="" style="html=1;points=[];perimeter=orthogonalPerimeter;gradientColor=none;" vertex="1" parent="1">
          <mxGeometry x="475" y="508" width="10" height="60" as="geometry" />
        </mxCell>
        <mxCell id="rhxwoxuRmd88uouzCbcx-19" value="4.taskView查看pipeline详情" style="html=1;verticalAlign=bottom;endArrow=block;entryX=0;entryY=0;" edge="1" parent="1">
          <mxGeometry relative="1" as="geometry">
            <mxPoint x="160" y="508" as="sourcePoint" />
            <mxPoint x="475" y="508" as="targetPoint" />
          </mxGeometry>
        </mxCell>
        <mxCell id="rhxwoxuRmd88uouzCbcx-20" value="返回依赖检测结果" style="html=1;verticalAlign=bottom;endArrow=open;dashed=1;endSize=8;exitX=0;exitY=0.95;" edge="1" source="rhxwoxuRmd88uouzCbcx-18" parent="1">
          <mxGeometry relative="1" as="geometry">
            <mxPoint x="160" y="566" as="targetPoint" />
          </mxGeometry>
        </mxCell>
        <mxCell id="rhxwoxuRmd88uouzCbcx-22" value="检测失败，重复执行3" style="edgeStyle=orthogonalEdgeStyle;html=1;align=left;spacingLeft=2;endArrow=block;rounded=0;entryX=1;entryY=0;" edge="1" parent="1">
          <mxGeometry relative="1" as="geometry">
            <mxPoint x="485" y="410" as="sourcePoint" />
            <Array as="points">
              <mxPoint x="560" y="410" />
              <mxPoint x="560" y="430" />
            </Array>
            <mxPoint x="490" y="430" as="targetPoint" />
          </mxGeometry>
        </mxCell>
      </root>
    </mxGraphModel>
  </diagram>
</mxfile>
